# xmcd
#
# Track frame offsets:
#	150
#	28976
#	52508
#	74821
#	107870
#	138227
#	160974
#	186272
#	213773
#	243545
#
# Disc length: 3411 seconds
#
# Revision: 1
# Processed by: cddbd v1.5.2PL0 Copyright (c) Steve Scherf et al.
# Submitted via: audiograbber 1.83.01
#
DISCID=900d510a
DTITLE=Antimatter - The Judas Table
DYEAR=2015
DGENRE=Dark Rock
TTITLE0=Black Eyed Man
TTITLE1=Killer
TTITLE2=Comrades
TTITLE3=Stillborn Empires
TTITLE4=Little Piggy
TTITLE5=Hole
TTITLE6=Can Of Worms
TTITLE7=Integrity
TTITLE8=The Judas Table
TTITLE9=Goodbye
EXTD=
EXTT0=
EXTT1=
EXTT2=
EXTT3=
EXTT4=
EXTT5=
EXTT6=
EXTT7=
EXTT8=
EXTT9=
PLAYORDER=
